<svg width="30" height="31" viewBox="0 0 30 31" fill="none" xmlns="http://www.w3.org/2000/svg">
<path d="M15 0.66333C10.925 0.66333 10.4163 0.68208 8.81625 0.75333C7.21875 0.82833 6.13125 1.07958 5.175 1.45083C4.18875 1.83333 3.35125 2.34708 2.5175 3.18083C1.68375 4.01458 1.16875 4.85083 0.7875 5.83833C0.41625 6.79458 0.16375 7.88208 0.09 9.47958C0.015 11.0796 0 11.5883 0 15.6633C0 19.7383 0.01875 20.2471 0.09 21.8471C0.165 23.4433 0.41625 24.5321 0.7875 25.4883C1.17 26.4733 1.68375 27.3121 2.5175 28.1458C3.35125 28.9783 4.1875 29.4946 5.175 29.8758C6.1325 30.2458 7.22 30.4996 8.81625 30.5733C10.4163 30.6483 10.925 30.6633 15 30.6633C19.075 30.6633 19.5837 30.6446 21.1838 30.5733C22.78 30.4983 23.8688 30.2458 24.825 29.8758C25.81 29.4933 26.6488 28.9783 27.4825 28.1458C28.315 27.3121 28.8313 26.4771 29.2125 25.4883C29.5825 24.5321 29.8363 23.4433 29.91 21.8471C29.985 20.2471 30 19.7383 30 15.6633C30 11.5883 29.9812 11.0796 29.91 9.47958C29.835 7.88333 29.5825 6.79333 29.2125 5.83833C28.83 4.85208 28.315 4.01458 27.4825 3.18083C26.6488 2.34708 25.8138 1.83208 24.825 1.45083C23.8688 1.07958 22.78 0.82708 21.1838 0.75333C19.5837 0.67833 19.075 0.66333 15 0.66333ZM15 3.36333C19.0037 3.36333 19.4813 3.38333 21.0625 3.45208C22.525 3.52083 23.3188 3.76333 23.8462 3.97083C24.5487 4.24208 25.0462 4.56708 25.5737 5.09083C26.0975 5.61583 26.4225 6.11458 26.6937 6.81708C26.8988 7.34458 27.1437 8.13833 27.21 9.60083C27.2812 11.1833 27.2975 11.6583 27.2975 15.6633C27.2975 19.6683 27.2787 20.1446 27.205 21.7258C27.1287 23.1883 26.885 23.9821 26.6788 24.5096C26.3988 25.2121 26.08 25.7096 25.555 26.2371C25.0312 26.7608 24.525 27.0858 23.83 27.3571C23.305 27.5621 22.4988 27.8071 21.0363 27.8733C19.4438 27.9446 18.975 27.9608 14.9625 27.9608C10.9488 27.9608 10.48 27.9421 8.88875 27.8683C7.425 27.7921 6.61875 27.5483 6.09375 27.3421C5.3825 27.0621 4.89375 26.7433 4.37 26.2183C3.84375 25.6946 3.5075 25.1883 3.245 24.4933C3.03875 23.9683 2.79625 23.1621 2.72 21.6996C2.66375 20.1246 2.64375 19.6383 2.64375 15.6446C2.64375 11.6496 2.66375 11.1621 2.72 9.56833C2.79625 8.10583 3.03875 7.30083 3.245 6.77583C3.5075 6.06333 3.84375 5.57583 4.37 5.04958C4.89375 4.52583 5.3825 4.18833 6.09375 3.92708C6.61875 3.71958 7.4075 3.47583 8.87 3.40083C10.4637 3.34458 10.9325 3.32583 14.9438 3.32583L15 3.36333ZM15 7.96083C10.7437 7.96083 7.2975 11.4108 7.2975 15.6633C7.2975 19.9196 10.7475 23.3658 15 23.3658C19.2563 23.3658 22.7025 19.9158 22.7025 15.6633C22.7025 11.4071 19.2525 7.96083 15 7.96083ZM15 20.6633C12.2375 20.6633 10 18.4258 10 15.6633C10 12.9008 12.2375 10.6633 15 10.6633C17.7625 10.6633 20 12.9008 20 15.6633C20 18.4258 17.7625 20.6633 15 20.6633ZM24.8075 7.65708C24.8075 8.65083 24 9.45708 23.0075 9.45708C22.0138 9.45708 21.2075 8.64958 21.2075 7.65708C21.2075 6.66458 22.015 5.85833 23.0075 5.85833C23.9988 5.85708 24.8075 6.66458 24.8075 7.65708Z" fill="white"/>
</svg>
